<svg version="1.1" id="Layer_1" xmlns="http://www.w3.org/2000/svg" xmlns:xlink="http://www.w3.org/1999/xlink" x="0px" y="0px"
	 width="100%" viewBox="0 0 256 256" enable-background="new 0 0 256 256" xml:space="preserve">
<path fill="#000000" opacity="1.000000" stroke="none" 
	d="
M25.252460,26.657833 
	C38.718983,26.654984 51.719013,26.780649 64.713936,26.578310 
	C68.386887,26.521120 70.032722,27.955019 71.139091,31.270704 
	C74.716446,41.991665 74.668167,41.643593 84.636673,37.167068 
	C124.237091,19.383808 161.690872,23.264856 196.024582,49.932873 
	C213.679932,63.646313 224.968933,82.035553 230.682343,103.799759 
	C231.848984,108.243881 230.655258,109.483894 226.343460,109.411354 
	C216.680923,109.248795 207.012939,109.285965 197.349121,109.403313 
	C194.492599,109.437988 192.943375,108.564461 191.786194,105.744865 
	C182.728043,83.673920 166.348679,70.050491 143.029068,65.439575 
	C123.670540,61.611862 105.794495,65.929054 89.797768,77.588165 
	C88.330101,78.657875 87.124207,80.081642 85.759621,81.299370 
	C84.421448,82.493538 83.445045,84.180038 81.233940,84.616554 
	C78.160759,77.843300 75.880470,70.771309 73.612381,63.692406 
	C71.032028,55.638947 68.273804,47.638943 65.878746,39.531261 
	C64.814713,35.929325 62.963074,34.287468 59.142326,34.361317 
	C51.313286,34.512646 43.478909,34.408646 35.646881,34.374626 
	C32.237499,34.359818 30.716053,35.286495 32.043945,39.177273 
	C38.206543,57.233940 44.164711,75.360397 50.190845,93.463615 
	C56.580826,112.659874 63.140926,131.801758 69.308754,151.069168 
	C77.753532,177.449463 103.123428,195.853577 130.572281,195.818024 
	C155.653778,195.785538 181.749573,179.780807 191.422470,155.076401 
	C192.684967,151.851974 194.310257,150.462418 197.936523,150.564407 
	C207.261154,150.826706 216.598022,150.642029 225.929932,150.666962 
	C227.568497,150.671341 229.272903,150.430984 231.161163,151.661560 
	C231.033844,157.743469 228.805359,163.499481 226.417282,169.034424 
	C211.517853,203.567307 185.552078,225.241364 148.615143,231.859879 
	C114.154366,238.034698 83.644142,228.497650 57.932903,204.196335 
	C41.616371,188.774567 32.212296,169.729309 27.961538,148.082275 
	C23.946487,127.635590 26.896101,107.733200 35.172516,88.716698 
	C37.081978,84.329369 37.742401,80.681877 36.091209,75.957573 
	C30.898024,61.099144 26.387949,46.003357 21.425474,31.061884 
	C20.223665,27.443367 21.522465,26.493729 25.252460,26.657833 
z"/>
<path fill="#000000" opacity="1.000000" stroke="none" 
	d="
M108.360153,108.352112 
	C118.299652,99.447609 129.190353,97.371307 141.322205,102.140457 
	C151.554810,106.162987 159.600403,117.440613 159.553757,129.366821 
	C159.498322,143.539291 151.768219,153.425476 141.101456,157.974274 
	C129.731827,162.822800 116.866249,160.037567 107.662819,150.981750 
	C96.059959,139.564987 96.261810,120.423332 108.360153,108.352112 
z"/>
</svg>